<!-- icon666.com - MILLIONS vector ICONS FREE --><svg width='20' height='20' id="Layer_1" enable-background="new 0 0 40 40" viewBox="0 0 40 40" xmlns="http://www.w3.org/2000/svg"><g><path d="m20 33c-3.9 0-5.8 0-7.4-.7-2.2-.9-4-2.6-4.9-4.9-.7-1.6-.7-3.5-.7-7.4s0-5.8.7-7.4c.9-2.2 2.6-4 4.9-4.9 1.6-.7 3.5-.7 7.4-.7s5.8 0 7.4.7c2.2.9 4 2.6 4.9 4.9.7 1.6.7 3.5.7 7.4s0 5.8-.7 7.4c-.9 2.2-2.6 4-4.9 4.9-1.6.7-3.5.7-7.4.7zm0-24c-3.6 0-5.4 0-6.7.5-1.7.7-3.1 2.1-3.8 3.8-.5 1.3-.5 3.1-.5 6.7s0 5.4.5 6.7c.7 1.7 2.1 3.1 3.8 3.8 1.3.5 3.1.5 6.7.5s5.4 0 6.7-.5c1.7-.7 3.1-2.1 3.8-3.8.5-1.3.5-3.1.5-6.7s0-5.4-.5-6.7c-.7-1.7-2.1-3.1-3.8-3.8-1.3-.5-3.1-.5-6.7-.5zm4 16c-.3 0-.5-.1-.7-.3l-3.3-3.3-3.3 3.3c-.4.4-1 .4-1.4 0s-.4-1 0-1.4l3.3-3.3-3.3-3.3c-.4-.4-.4-1 0-1.4s1-.4 1.4 0l3.3 3.3 3.3-3.3c.4-.4 1-.4 1.4 0s.4 1 0 1.4l-3.3 3.3 3.3 3.3c.4.4.4 1 0 1.4-.2.2-.4.3-.7.3z"></path></g></svg>